<mxfile host="app.diagrams.net" modified="2020-10-11T09:17:52.562Z" agent="5.0 (Windows NT 10.0; Win64; x64) AppleWebKit/537.36 (KHTML, like Gecko) Chrome/86.0.4240.75 Safari/537.36" etag="uUl3ebv9MfUWaJi2al9H" version="13.7.9" type="github">
  <diagram id="Akyd9Ma3qcTWE-It90zo" name="Page-1">
    <mxGraphModel dx="1516" dy="1475" grid="1" gridSize="10" guides="1" tooltips="1" connect="1" arrows="1" fold="1" page="1" pageScale="1" pageWidth="850" pageHeight="1100" math="0" shadow="0">
      <root>
        <mxCell id="0" />
        <mxCell id="1" parent="0" />
        <mxCell id="f7BMh4wDVnp2-JzudyyM-6" value="" style="whiteSpace=wrap;html=1;aspect=fixed;strokeColor=#000000;" vertex="1" parent="1">
          <mxGeometry x="90" y="-340" width="1420" height="1420" as="geometry" />
        </mxCell>
        <mxCell id="f7BMh4wDVnp2-JzudyyM-10" value="Login and logout from system" style="ellipse;whiteSpace=wrap;html=1;" vertex="1" parent="1">
          <mxGeometry x="415" y="370" width="190" height="70" as="geometry" />
        </mxCell>
        <mxCell id="f7BMh4wDVnp2-JzudyyM-13" value="Update my profile" style="ellipse;whiteSpace=wrap;html=1;" vertex="1" parent="1">
          <mxGeometry x="400" y="460" width="200" height="60" as="geometry" />
        </mxCell>
        <mxCell id="f7BMh4wDVnp2-JzudyyM-14" value="Employee" style="shape=umlActor;verticalLabelPosition=bottom;verticalAlign=top;html=1;outlineConnect=0;strokeColor=#000000;" vertex="1" parent="1">
          <mxGeometry x="1530" y="260" width="110" height="175" as="geometry" />
        </mxCell>
        <mxCell id="f7BMh4wDVnp2-JzudyyM-21" value="Employee Details" style="ellipse;whiteSpace=wrap;html=1;strokeColor=#000000;" vertex="1" parent="1">
          <mxGeometry x="425" y="90" width="265" height="50" as="geometry" />
        </mxCell>
        <mxCell id="f7BMh4wDVnp2-JzudyyM-25" value="Update Employee" style="ellipse;whiteSpace=wrap;html=1;strokeColor=#000000;" vertex="1" parent="1">
          <mxGeometry x="450" y="-190" width="120" height="40" as="geometry" />
        </mxCell>
        <mxCell id="f7BMh4wDVnp2-JzudyyM-26" value="Add Employee" style="ellipse;whiteSpace=wrap;html=1;strokeColor=#000000;" vertex="1" parent="1">
          <mxGeometry x="450" y="-130" width="120" height="40" as="geometry" />
        </mxCell>
        <mxCell id="f7BMh4wDVnp2-JzudyyM-27" value="Search Employee" style="ellipse;whiteSpace=wrap;html=1;strokeColor=#000000;" vertex="1" parent="1">
          <mxGeometry x="450" y="-70" width="120" height="50" as="geometry" />
        </mxCell>
        <mxCell id="f7BMh4wDVnp2-JzudyyM-28" value="Home" style="ellipse;whiteSpace=wrap;html=1;strokeColor=#000000;" vertex="1" parent="1">
          <mxGeometry x="450" y="-250" width="120" height="40" as="geometry" />
        </mxCell>
        <mxCell id="f7BMh4wDVnp2-JzudyyM-29" value="Delete Employee" style="ellipse;whiteSpace=wrap;html=1;strokeColor=#000000;" vertex="1" parent="1">
          <mxGeometry x="450" width="120" height="40" as="geometry" />
        </mxCell>
        <mxCell id="f7BMh4wDVnp2-JzudyyM-30" value="" style="ellipse;whiteSpace=wrap;html=1;aspect=fixed;strokeColor=#000000;" vertex="1" parent="1">
          <mxGeometry x="260" y="-80" width="40" height="40" as="geometry" />
        </mxCell>
        <mxCell id="f7BMh4wDVnp2-JzudyyM-32" value="Emp id&lt;br&gt;Department&lt;br&gt;Name&lt;br&gt;Gender&lt;br&gt;Date of Birth&lt;br&gt;Phone Number&lt;br&gt;Email&lt;br&gt;Salary&lt;br&gt;Status&lt;br&gt;Address" style="rounded=0;whiteSpace=wrap;html=1;strokeColor=#000000;" vertex="1" parent="1">
          <mxGeometry x="400" y="180" width="270" height="160" as="geometry" />
        </mxCell>
        <mxCell id="f7BMh4wDVnp2-JzudyyM-33" value="Attendence" style="ellipse;whiteSpace=wrap;html=1;strokeColor=#000000;" vertex="1" parent="1">
          <mxGeometry x="345" y="760" width="200" height="60" as="geometry" />
        </mxCell>
        <mxCell id="f7BMh4wDVnp2-JzudyyM-35" value="Add Attendance" style="rounded=0;whiteSpace=wrap;html=1;strokeColor=#000000;" vertex="1" parent="1">
          <mxGeometry x="215" y="930" width="130" height="40" as="geometry" />
        </mxCell>
        <mxCell id="f7BMh4wDVnp2-JzudyyM-36" value="Show Attendence" style="rounded=0;whiteSpace=wrap;html=1;strokeColor=#000000;" vertex="1" parent="1">
          <mxGeometry x="580" y="940" width="135" height="40" as="geometry" />
        </mxCell>
        <mxCell id="f7BMh4wDVnp2-JzudyyM-37" value="Salary" style="ellipse;whiteSpace=wrap;html=1;strokeColor=#000000;" vertex="1" parent="1">
          <mxGeometry x="420" y="540" width="160" height="80" as="geometry" />
        </mxCell>
        <mxCell id="f7BMh4wDVnp2-JzudyyM-38" value="" style="endArrow=none;html=1;exitX=1;exitY=0.5;exitDx=0;exitDy=0;entryX=0;entryY=0.5;entryDx=0;entryDy=0;" edge="1" parent="1" source="f7BMh4wDVnp2-JzudyyM-30" target="f7BMh4wDVnp2-JzudyyM-29">
          <mxGeometry width="50" height="50" relative="1" as="geometry">
            <mxPoint x="480" y="50" as="sourcePoint" />
            <mxPoint x="530" as="targetPoint" />
          </mxGeometry>
        </mxCell>
        <mxCell id="f7BMh4wDVnp2-JzudyyM-39" value="" style="endArrow=none;html=1;entryX=0;entryY=0.5;entryDx=0;entryDy=0;exitX=1;exitY=0.5;exitDx=0;exitDy=0;" edge="1" parent="1" source="f7BMh4wDVnp2-JzudyyM-30" target="f7BMh4wDVnp2-JzudyyM-27">
          <mxGeometry width="50" height="50" relative="1" as="geometry">
            <mxPoint x="480" y="50" as="sourcePoint" />
            <mxPoint x="530" as="targetPoint" />
          </mxGeometry>
        </mxCell>
        <mxCell id="f7BMh4wDVnp2-JzudyyM-40" value="" style="endArrow=none;html=1;entryX=0;entryY=0.5;entryDx=0;entryDy=0;" edge="1" parent="1" target="f7BMh4wDVnp2-JzudyyM-26">
          <mxGeometry width="50" height="50" relative="1" as="geometry">
            <mxPoint x="300" y="-60" as="sourcePoint" />
            <mxPoint x="530" as="targetPoint" />
          </mxGeometry>
        </mxCell>
        <mxCell id="f7BMh4wDVnp2-JzudyyM-41" value="" style="endArrow=none;html=1;exitX=0.042;exitY=0.272;exitDx=0;exitDy=0;exitPerimeter=0;" edge="1" parent="1" source="f7BMh4wDVnp2-JzudyyM-21">
          <mxGeometry width="50" height="50" relative="1" as="geometry">
            <mxPoint x="425" y="100" as="sourcePoint" />
            <mxPoint x="300" y="-60" as="targetPoint" />
          </mxGeometry>
        </mxCell>
        <mxCell id="f7BMh4wDVnp2-JzudyyM-42" value="" style="endArrow=none;html=1;entryX=0;entryY=0.5;entryDx=0;entryDy=0;exitX=1;exitY=0.5;exitDx=0;exitDy=0;" edge="1" parent="1" source="f7BMh4wDVnp2-JzudyyM-30" target="f7BMh4wDVnp2-JzudyyM-25">
          <mxGeometry width="50" height="50" relative="1" as="geometry">
            <mxPoint x="480" y="50" as="sourcePoint" />
            <mxPoint x="530" as="targetPoint" />
          </mxGeometry>
        </mxCell>
        <mxCell id="f7BMh4wDVnp2-JzudyyM-43" value="" style="endArrow=none;html=1;entryX=0;entryY=0.5;entryDx=0;entryDy=0;" edge="1" parent="1" target="f7BMh4wDVnp2-JzudyyM-28">
          <mxGeometry width="50" height="50" relative="1" as="geometry">
            <mxPoint x="300" y="-60" as="sourcePoint" />
            <mxPoint x="530" as="targetPoint" />
          </mxGeometry>
        </mxCell>
        <mxCell id="f7BMh4wDVnp2-JzudyyM-48" value="" style="endArrow=classic;html=1;entryX=0.5;entryY=0;entryDx=0;entryDy=0;" edge="1" parent="1" source="f7BMh4wDVnp2-JzudyyM-21" target="f7BMh4wDVnp2-JzudyyM-32">
          <mxGeometry width="50" height="50" relative="1" as="geometry">
            <mxPoint x="480" y="190" as="sourcePoint" />
            <mxPoint x="530" y="140" as="targetPoint" />
          </mxGeometry>
        </mxCell>
        <mxCell id="f7BMh4wDVnp2-JzudyyM-49" value="" style="ellipse;whiteSpace=wrap;html=1;aspect=fixed;strokeColor=#000000;" vertex="1" parent="1">
          <mxGeometry x="200" y="490" width="60" height="60" as="geometry" />
        </mxCell>
        <mxCell id="f7BMh4wDVnp2-JzudyyM-50" value="" style="endArrow=none;html=1;exitX=0.991;exitY=0.309;exitDx=0;exitDy=0;exitPerimeter=0;entryX=-0.002;entryY=0.682;entryDx=0;entryDy=0;entryPerimeter=0;" edge="1" parent="1" source="f7BMh4wDVnp2-JzudyyM-49" target="f7BMh4wDVnp2-JzudyyM-10">
          <mxGeometry width="50" height="50" relative="1" as="geometry">
            <mxPoint x="335" y="460" as="sourcePoint" />
            <mxPoint x="385" y="410" as="targetPoint" />
          </mxGeometry>
        </mxCell>
        <mxCell id="f7BMh4wDVnp2-JzudyyM-52" value="" style="endArrow=none;html=1;entryX=1;entryY=1;entryDx=0;entryDy=0;exitX=0;exitY=0.5;exitDx=0;exitDy=0;" edge="1" parent="1" source="f7BMh4wDVnp2-JzudyyM-33" target="f7BMh4wDVnp2-JzudyyM-49">
          <mxGeometry width="50" height="50" relative="1" as="geometry">
            <mxPoint x="580" y="690" as="sourcePoint" />
            <mxPoint x="630" y="640" as="targetPoint" />
          </mxGeometry>
        </mxCell>
        <mxCell id="f7BMh4wDVnp2-JzudyyM-53" value="" style="endArrow=none;html=1;exitX=0;exitY=0.5;exitDx=0;exitDy=0;" edge="1" parent="1" source="f7BMh4wDVnp2-JzudyyM-37">
          <mxGeometry width="50" height="50" relative="1" as="geometry">
            <mxPoint x="580" y="690" as="sourcePoint" />
            <mxPoint x="260" y="520" as="targetPoint" />
          </mxGeometry>
        </mxCell>
        <mxCell id="f7BMh4wDVnp2-JzudyyM-54" value="" style="endArrow=none;html=1;entryX=0;entryY=0.5;entryDx=0;entryDy=0;exitX=1;exitY=0.5;exitDx=0;exitDy=0;" edge="1" parent="1" source="f7BMh4wDVnp2-JzudyyM-49" target="f7BMh4wDVnp2-JzudyyM-13">
          <mxGeometry width="50" height="50" relative="1" as="geometry">
            <mxPoint x="270" y="520" as="sourcePoint" />
            <mxPoint x="630" y="640" as="targetPoint" />
          </mxGeometry>
        </mxCell>
        <mxCell id="f7BMh4wDVnp2-JzudyyM-56" value="" style="endArrow=none;html=1;exitX=0.5;exitY=0;exitDx=0;exitDy=0;" edge="1" parent="1" source="f7BMh4wDVnp2-JzudyyM-35">
          <mxGeometry width="50" height="50" relative="1" as="geometry">
            <mxPoint x="560" y="570" as="sourcePoint" />
            <mxPoint x="450" y="820" as="targetPoint" />
          </mxGeometry>
        </mxCell>
        <mxCell id="f7BMh4wDVnp2-JzudyyM-57" value="" style="endArrow=none;html=1;entryX=0.5;entryY=0;entryDx=0;entryDy=0;exitX=0.5;exitY=1;exitDx=0;exitDy=0;" edge="1" parent="1" source="f7BMh4wDVnp2-JzudyyM-33" target="f7BMh4wDVnp2-JzudyyM-36">
          <mxGeometry width="50" height="50" relative="1" as="geometry">
            <mxPoint x="560" y="570" as="sourcePoint" />
            <mxPoint x="610" y="520" as="targetPoint" />
          </mxGeometry>
        </mxCell>
        <mxCell id="f7BMh4wDVnp2-JzudyyM-58" value="" style="ellipse;whiteSpace=wrap;html=1;aspect=fixed;strokeColor=#000000;" vertex="1" parent="1">
          <mxGeometry x="880" y="430" width="50" height="50" as="geometry" />
        </mxCell>
        <mxCell id="f7BMh4wDVnp2-JzudyyM-59" value="" style="endArrow=none;html=1;entryX=1;entryY=0.5;entryDx=0;entryDy=0;exitX=0;exitY=0;exitDx=0;exitDy=0;" edge="1" parent="1" source="f7BMh4wDVnp2-JzudyyM-58" target="f7BMh4wDVnp2-JzudyyM-21">
          <mxGeometry width="50" height="50" relative="1" as="geometry">
            <mxPoint x="670" y="290" as="sourcePoint" />
            <mxPoint x="720" y="240" as="targetPoint" />
          </mxGeometry>
        </mxCell>
        <mxCell id="f7BMh4wDVnp2-JzudyyM-61" value="" style="endArrow=none;html=1;exitX=1;exitY=0.5;exitDx=0;exitDy=0;entryX=0;entryY=0.5;entryDx=0;entryDy=0;" edge="1" parent="1" source="f7BMh4wDVnp2-JzudyyM-10" target="f7BMh4wDVnp2-JzudyyM-58">
          <mxGeometry width="50" height="50" relative="1" as="geometry">
            <mxPoint x="800" y="530" as="sourcePoint" />
            <mxPoint x="850" y="480" as="targetPoint" />
          </mxGeometry>
        </mxCell>
        <mxCell id="f7BMh4wDVnp2-JzudyyM-62" value="" style="endArrow=none;html=1;exitX=1;exitY=0.5;exitDx=0;exitDy=0;" edge="1" parent="1" source="f7BMh4wDVnp2-JzudyyM-13">
          <mxGeometry width="50" height="50" relative="1" as="geometry">
            <mxPoint x="800" y="530" as="sourcePoint" />
            <mxPoint x="880" y="460" as="targetPoint" />
          </mxGeometry>
        </mxCell>
        <mxCell id="f7BMh4wDVnp2-JzudyyM-63" value="Calculate Total Salary" style="rounded=0;whiteSpace=wrap;html=1;strokeColor=#000000;" vertex="1" parent="1">
          <mxGeometry x="390" y="660" width="120" height="60" as="geometry" />
        </mxCell>
        <mxCell id="f7BMh4wDVnp2-JzudyyM-64" value="Show salarry" style="rounded=0;whiteSpace=wrap;html=1;strokeColor=#000000;" vertex="1" parent="1">
          <mxGeometry x="600" y="660" width="120" height="60" as="geometry" />
        </mxCell>
        <mxCell id="f7BMh4wDVnp2-JzudyyM-65" style="edgeStyle=orthogonalEdgeStyle;rounded=0;orthogonalLoop=1;jettySize=auto;html=1;exitX=0.5;exitY=1;exitDx=0;exitDy=0;" edge="1" parent="1" source="f7BMh4wDVnp2-JzudyyM-33" target="f7BMh4wDVnp2-JzudyyM-33">
          <mxGeometry relative="1" as="geometry" />
        </mxCell>
        <mxCell id="f7BMh4wDVnp2-JzudyyM-67" value="" style="endArrow=none;html=1;exitX=0.5;exitY=0;exitDx=0;exitDy=0;" edge="1" parent="1" source="f7BMh4wDVnp2-JzudyyM-64">
          <mxGeometry width="50" height="50" relative="1" as="geometry">
            <mxPoint x="640" y="670" as="sourcePoint" />
            <mxPoint x="580" y="590" as="targetPoint" />
          </mxGeometry>
        </mxCell>
        <mxCell id="f7BMh4wDVnp2-JzudyyM-68" value="" style="endArrow=none;html=1;entryX=0.313;entryY=1;entryDx=0;entryDy=0;entryPerimeter=0;exitX=0.5;exitY=0;exitDx=0;exitDy=0;" edge="1" parent="1" source="f7BMh4wDVnp2-JzudyyM-63" target="f7BMh4wDVnp2-JzudyyM-37">
          <mxGeometry width="50" height="50" relative="1" as="geometry">
            <mxPoint x="640" y="670" as="sourcePoint" />
            <mxPoint x="690" y="620" as="targetPoint" />
          </mxGeometry>
        </mxCell>
        <mxCell id="f7BMh4wDVnp2-JzudyyM-69" value="" style="endArrow=none;html=1;entryX=0.5;entryY=1;entryDx=0;entryDy=0;" edge="1" parent="1" target="f7BMh4wDVnp2-JzudyyM-58">
          <mxGeometry width="50" height="50" relative="1" as="geometry">
            <mxPoint x="670" y="660" as="sourcePoint" />
            <mxPoint x="720" y="660" as="targetPoint" />
          </mxGeometry>
        </mxCell>
        <mxCell id="f7BMh4wDVnp2-JzudyyM-70" value="" style="endArrow=none;html=1;entryX=0.5;entryY=1;entryDx=0;entryDy=0;exitX=0.5;exitY=0;exitDx=0;exitDy=0;" edge="1" parent="1" source="f7BMh4wDVnp2-JzudyyM-36" target="f7BMh4wDVnp2-JzudyyM-58">
          <mxGeometry width="50" height="50" relative="1" as="geometry">
            <mxPoint x="660" y="930" as="sourcePoint" />
            <mxPoint x="720" y="660" as="targetPoint" />
          </mxGeometry>
        </mxCell>
        <mxCell id="f7BMh4wDVnp2-JzudyyM-73" value="Admin" style="shape=umlActor;verticalLabelPosition=bottom;verticalAlign=top;html=1;outlineConnect=0;strokeColor=#000000;" vertex="1" parent="1">
          <mxGeometry x="-270" y="300" width="130" height="190" as="geometry" />
        </mxCell>
        <mxCell id="f7BMh4wDVnp2-JzudyyM-74" value="" style="endArrow=none;html=1;exitX=0.5;exitY=0.5;exitDx=0;exitDy=0;exitPerimeter=0;entryX=0;entryY=0.5;entryDx=0;entryDy=0;" edge="1" parent="1" source="f7BMh4wDVnp2-JzudyyM-73" target="f7BMh4wDVnp2-JzudyyM-49">
          <mxGeometry width="50" height="50" relative="1" as="geometry">
            <mxPoint x="320" y="430" as="sourcePoint" />
            <mxPoint x="370" y="380" as="targetPoint" />
          </mxGeometry>
        </mxCell>
        <mxCell id="f7BMh4wDVnp2-JzudyyM-75" value="" style="endArrow=none;html=1;entryX=0;entryY=0.5;entryDx=0;entryDy=0;" edge="1" parent="1" target="f7BMh4wDVnp2-JzudyyM-30">
          <mxGeometry width="50" height="50" relative="1" as="geometry">
            <mxPoint x="-200" y="400" as="sourcePoint" />
            <mxPoint x="370" y="380" as="targetPoint" />
          </mxGeometry>
        </mxCell>
        <mxCell id="f7BMh4wDVnp2-JzudyyM-76" value="" style="endArrow=none;html=1;exitX=1;exitY=0.5;exitDx=0;exitDy=0;entryX=0.5;entryY=0.5;entryDx=0;entryDy=0;entryPerimeter=0;" edge="1" parent="1" source="f7BMh4wDVnp2-JzudyyM-58" target="f7BMh4wDVnp2-JzudyyM-14">
          <mxGeometry width="50" height="50" relative="1" as="geometry">
            <mxPoint x="1090" y="350" as="sourcePoint" />
            <mxPoint x="1140" y="300" as="targetPoint" />
          </mxGeometry>
        </mxCell>
      </root>
    </mxGraphModel>
  </diagram>
</mxfile>
